HIERARCHY
ROOT Hips
{
  OFFSET -69.4423 88.0299 51.6846
  CHANNELS 6 Xposition Yposition Zposition Zrotation Xrotation Yrotation
  JOINT Spine
  {
    OFFSET 12.0259 -0.162853 1.93176e-005
    CHANNELS 3 Zrotation Xrotation Yrotation
    JOINT Spine1
    {
      OFFSET 15.3169 -0.0121909 0
      CHANNELS 3 Zrotation Xrotation Yrotation
      JOINT Spine2
      {
        OFFSET 15.3176 -0.0121922 0
        CHANNELS 3 Zrotation Xrotation Yrotation
        JOINT Neck
        {
          OFFSET 19.9142 1.56236 0
          CHANNELS 3 Zrotation Xrotation Yrotation
          JOINT Head
          {
            OFFSET 6.92646 0 0
            CHANNELS 3 Zrotation Xrotation Yrotation
            End Site
            {
              OFFSET 20.7666 0 0
            }
          }
          JOINT LeftShoulder
          {
            OFFSET -4.94072 -1.14703 8.14416
            CHANNELS 3 Zrotation Xrotation Yrotation
            JOINT LeftArm
            {
              OFFSET 14.108 0 -2.74767e-005
              CHANNELS 3 Zrotation Xrotation Yrotation
              JOINT LeftForeArm
              {
                OFFSET 28.5802 -0.0783412 -0.0284884
                CHANNELS 3 Zrotation Xrotation Yrotation
                JOINT LeftHand
                {
                  OFFSET 27.092 0 0
                  CHANNELS 3 Zrotation Xrotation Yrotation
                  End Site
                  {
                    OFFSET 9.55928 -0.186424 0.145352
                  }
                }
              }
            }
          }
          JOINT RightShoulder
          {
            OFFSET -7.15748 -1.33027 -6.24935
            CHANNELS 3 Zrotation Xrotation Yrotation
            JOINT RightArm
            {
              OFFSET 14.108 0 1.82997e-005
              CHANNELS 3 Zrotation Xrotation Yrotation
              JOINT RightForeArm
              {
                OFFSET 28.5802 -0.0707221 2.30684e-005
                CHANNELS 3 Zrotation Xrotation Yrotation
                JOINT RightHand
                {
                  OFFSET 27.092 0 -1.30073e-005
                  CHANNELS 3 Zrotation Xrotation Yrotation
                  End Site
                  {
                    OFFSET 9.55929 -0.186417 -0.145354
                  }
                }
              }
            }
          }
        }
      }
    }
  }
  JOINT LeftUpLeg
  {
    OFFSET 0.00499725 -0.534999 8.837
    CHANNELS 3 Zrotation Xrotation Yrotation
    JOINT LeftLeg
    {
      OFFSET 39.9035 -0.00124594 0.000252775
      CHANNELS 3 Zrotation Xrotation Yrotation
      JOINT LeftFoot
      {
        OFFSET 39.6689 0 0
        CHANNELS 3 Zrotation Xrotation Yrotation
        JOINT LeftToe
        {
          OFFSET 10.1624 13.6296 0
          CHANNELS 3 Zrotation Xrotation Yrotation
          End Site
          {
            OFFSET 8.38147 0 0
          }
        }
      }
    }
  }
  JOINT RightUpLeg
  {
    OFFSET 0.00499725 -0.535 -8.837
    CHANNELS 3 Zrotation Xrotation Yrotation
    JOINT RightLeg
    {
      OFFSET 39.9036 -0.000268477 0.000106433
      CHANNELS 3 Zrotation Xrotation Yrotation
      JOINT RightFoot
      {
        OFFSET 39.6689 1.17892e-005 0
        CHANNELS 3 Zrotation Xrotation Yrotation
        JOINT RightToe
        {
          OFFSET 10.1624 13.6296 0
          CHANNELS 3 Zrotation Xrotation Yrotation
          End Site
          {
            OFFSET 8.38147 0 0
          }
        }
      }
    }
  }
}
MOTION
Frames:	11
Frame Time:	0.0333333
-70.056 87.89 -62.7837 -116.158 87.6692 -147.983 1.10668 -1.20682 -0.506298 2.2034 -2.42267 -0.989363 2.20339 -2.42268 -0.989378 -19.5633 -1.36082 -13.0258 39.9958 -0.081058 13.6383 -162.333 -3.45213 -95.2745 -33.8691 -3.52456 76.2658 -22.8971 2.1005 -14.9329 11.4128 -83.576 14.1732 -163.032 -7.17365 72.728 -7.5775 -6.80333 -84.9965 -24.9443 -2.88805 14.9873 6.73195 86.0175 -6.4707 14.3232 -6.34917 172.579 -1.77533 1.09583 -1.83281 -3.43176 11.6612 2.47724 90 -7.95139e-015 -3.18055e-015 -32.0388 1.26446 172.177 -21.1226 0.0523929 1.27559 -8.95753 4.27708 1.51279 90 3.26752e-015 5.56597e-015 
-70.3596 87.6326 -59.5697 -116.901 86.9489 -146.957 1.08253 -1.35715 -0.521851 2.15358 -2.72338 -1.01822 2.15358 -2.72338 -1.01823 -20.0007 -1.40713 -13.2363 40.1911 0.0293573 14.1529 -161.928 -3.63986 -95.4127 -34.6331 -3.88211 76.1562 -23.0127 2.11835 -15.0212 10.696 -83.3036 13.4314 -162.63 -7.39155 72.5513 -5.2126 -6.65282 -84.7166 -23.9076 -2.65901 14.4069 4.66142 84.4666 -4.33342 15.8613 -7.25837 172.969 -1.76335 1.1168 -1.7995 -4.12519 12.4674 2.68882 90 1.27222e-014 1.27222e-014 -32.8335 0.505442 172.125 -21.0011 0.0536634 1.30471 -7.41072 4.25248 1.25167 90 2.68359e-015 1.27222e-014 
-70.7098 87.5695 -56.1038 -114.885 86.6488 -148.609 1.09471 -1.42318 -0.570871 2.17652 -2.85646 -1.11478 2.17651 -2.85646 -1.11479 -20.293 -1.40149 -13.2647 40.2817 0.182593 14.4048 -161.664 -3.72901 -95.4172 -35.0071 -3.85222 76.5968 -23.2179 2.15294 -15.1463 10.173 -82.9042 12.8107 -162.367 -7.43948 72.5451 -4.31366 -7.55806 -84.6836 -23.9482 -2.67942 14.4623 5.17523 85.1504 -5.06334 17.6602 -7.9011 173.236 -1.74173 1.14366 -1.75299 -5.66933 13.3839 3.0618 90 -1.59028e-015 -3.18055e-015 -32.8884 -1.38551 172.153 -22.6662 0.0712866 1.29977 -8.5403 4.95566 1.70138 90 2.32019e-015 1.35174e-014 
-71.1719 87.6106 -52.2359 -111.628 85.8346 -151.842 1.06406 -1.60471 -0.530299 2.11449 -3.21845 -1.03107 2.11448 -3.21845 -1.03108 -20.6952 -1.33919 -13.2299 40.6401 0.233184 14.3247 -161.285 -3.79722 -95.3601 -35.0639 -3.50035 77.3558 -23.2811 2.15953 -15.1529 10.1289 -82.8558 12.8057 -161.943 -7.36023 72.5552 -3.04699 -7.78758 -84.6653 -23.2464 -2.54079 14.0802 5.13918 84.7152 -4.99787 19.5513 -8.95449 174.096 -1.69907 1.15318 -1.72697 -8.25888 14.1672 3.66013 90 -2.22639e-014 -1.27222e-014 -32.0078 -1.98116 172.616 -24.5721 0.0535842 1.28296 -9.16411 4.90623 1.79015 90 -6.06293e-015 -1.03368e-014 
-71.8559 88.0638 -48.1613 -112.028 85.0895 -152.832 0.872813 -1.69133 -0.212376 1.74053 -3.38518 -0.39903 1.74051 -3.38518 -0.399049 -20.2855 -1.30767 -12.9969 40.8457 0.161743 13.8137 -161.746 -3.68895 -95.2112 -34.3317 -2.46098 79.1492 -23.2201 2.14837 -15.0891 9.979 -82.5211 12.57 -162.334 -7.03901 72.6676 -1.64048 -8.69609 -84.6541 -22.7445 -2.44382 13.8094 5.05395 84.5038 -4.90637 21.038 -9.29956 176.379 -1.63637 1.14433 -1.7382 -14.61 15.3427 5.34315 90 -1.59028e-015 1.74931e-014 -30.982 -2.54867 174.271 -25.1554 0.0439819 1.21617 -15.3529 2.2332 1.49508 90 7.35503e-015 1.19271e-015 
-72.636 88.4163 -44.0535 -120.934 86.1711 -145.667 0.827811 -1.44053 0.121207 1.65946 -2.87867 0.263515 1.65945 -2.87868 0.263498 -20.2485 -1.26521 -12.9598 41.2719 0.372702 13.8984 -161.852 -3.78401 -95.1599 -32.4082 -1.6728 80.872 -22.7608 2.08534 -14.8182 9.26551 -81.9574 11.993 -162.345 -6.94224 72.6171 0.41745 -8.4748 -84.7395 -21.943 -2.28608 13.3701 4.11457 83.2529 -3.96353 18.8736 -7.35472 177.754 -7.95638 1.33611 -1.44525 -22.4845 14.8514 6.35447 90 2.38542e-014 1.27222e-014 -29.2014 -3.28545 176.914 -26.0329 -0.0480346 1.13762 -15.8266 1.93751 1.39177 90 -1.91827e-014 9.54166e-015 
-73.2766 88.7429 -40.0818 -119.461 86.8738 -147.817 0.880465 -1.36589 0.273338 1.7682 -2.7269 0.568042 1.76819 -2.72692 0.568026 -20.2496 -1.12007 -12.8778 41.6413 0.582177 13.5952 -161.888 -3.75394 -95.0956 -30.1856 -0.854885 82.5511 -22.2266 2.01182 -14.5029 8.64138 -81.1963 11.2572 -162.289 -6.72655 72.5686 1.00482 -8.10993 -84.6011 -21.4083 -2.18569 13.0904 3.57629 82.4155 -3.40696 13.5763 -5.53897 178.051 -18.4707 1.36847 -1.02138 -33.3086 14.3986 8.67734 90 2.70347e-014 2.22639e-014 -27.2078 -4.11347 178.25 -28.1498 -0.199748 1.09688 -13.8095 0.460845 0.471787 90 -2.46493e-014 -1.47101e-014 
-73.9977 89.1791 -36.2799 -115.428 86.969 -153.045 0.911176 -1.27692 0.483638 1.83379 -2.54543 0.988045 1.83378 -2.54544 0.988033 -19.8075 -1.32553 -12.7831 41.5664 0.31978 13.7189 -162.402 -3.96823 -94.9723 -30.1228 0.449945 83.4823 -21.7238 1.92267 -14.1699 7.61334 -81.1505 10.4067 -162.735 -6.76887 72.6359 0.317745 -7.99356 -84.702 -21.5193 -2.20424 13.1556 3.66654 82.8636 -3.4917 7.644 -4.33307 179.213 -28.6897 1.36239 -0.72175 -39.0784 16.1419 11.7693 90 -2.22639e-014 -5.56597e-015 -24.4217 -4.28622 -179.835 -28.7656 -0.318401 1.03114 -11.1204 1.17523 0.573319 90 -5.26779e-015 -1.19271e-015 
-74.5804 89.6612 -32.5402 -105.171 87.9242 -164.172 1.0649 -0.991948 0.578162 2.14025 -1.97243 1.17508 2.14024 -1.97244 1.17507 -19.4231 -1.61885 -12.8038 41.6821 -0.0864149 14.0206 -162.834 -4.25978 -94.8945 -31.4613 1.4892 83.5001 -20.7766 1.76329 -13.6135 8.85781 -80.3216 11.0897 -163.158 -7.0009 72.6568 -1.24348 -7.82012 -84.9476 -22.1036 -2.31762 13.4849 3.49601 82.3743 -3.34003 2.33133 -2.45502 -179.816 -39.0105 1.2428 -0.433555 -31.4925 15.6756 9.11935 90 3.18055e-014 3.26007e-014 -20.5091 -4.1421 -178.18 -27.8758 -0.429636 0.952457 -9.20034 1.49301 0.533279 90 5.96354e-016 1.98785e-015 
-75.0312 90.082 -28.8976 -93.0497 89.4872 -176.691 1.12797 -0.557835 0.544396 2.26135 -1.10432 1.0999 2.26134 -1.10433 1.09988 -19.1174 -1.79912 -12.9431 42.155 -0.193739 14.4226 -163.195 -4.50395 -94.9697 -31.4425 2.45615 83.5518 -20.3158 1.68866 -13.3158 4.45687 -77.7744 7.16689 -163.496 -7.18315 72.5733 -3.682 -7.51481 -85.2391 -22.5237 -2.39626 13.708 4.23738 83.2653 -3.99576 -2.52638 0.414738 -179.052 -46.1641 1.05097 -0.226813 -21.989 12.464 5.13385 90 -4.77083e-015 -1.27222e-014 -16.977 -3.48586 -176.991 -26.7705 -0.52633 0.88898 -7.64992 1.08118 0.227323 90 5.46658e-015 3.57812e-015 
-75.3984 90.2565 -25.3773 74.4311 89.2145 15.8302 1.09033 -0.157045 0.443929 2.18185 -0.305126 0.89092 2.18184 -0.305128 0.890905 -18.4081 -1.93142 -13.0698 42.3179 -0.248426 14.6321 -163.958 -4.62179 -95.1074 -30.2709 3.34036 83.8726 -20.0718 1.65589 -13.1354 4.17589 -76.4599 6.77618 -164.201 -7.20307 72.4419 -5.72375 -6.69311 -85.2516 -22.7373 -2.43411 13.8268 5.30327 84.6836 -5.06773 -7.22961 2.04309 -178.713 -49.9138 0.889516 -0.192165 -16.8787 9.20964 2.96903 90 2.14687e-014 1.66979e-014 -14.3432 -2.11281 -176.28 -26.6319 -0.595362 0.831998 -5.69037 1.46765 0.161491 90 -4.96962e-015 2.78299e-015 
